<?xml version="1.0" encoding="UTF-8" standalone="no" ?>
<!DOCTYPE svg PUBLIC "-//W3C//DTD SVG 1.1//EN" "http://www.w3.org/Graphics/SVG/1.1/DTD/svg11.dtd">
<svg xmlns="http://www.w3.org/2000/svg" xmlns:xlink="http://www.w3.org/1999/xlink" version="1.1" width="640" height="640" viewBox="0 0 640 640" xml:space="preserve">
<desc>Created with Fabric.js 4.6.0</desc>
<defs>
</defs>
<g transform="matrix(1.52 0 0 1.52 320 271.62)" id="0rXdySt8iO0dJgoOWr9v0"  >
<path style="stroke: rgb(0,0,0); stroke-width: 22; stroke-dasharray: none; stroke-linecap: butt; stroke-dashoffset: 0; stroke-linejoin: miter; stroke-miterlimit: 4; fill: none; fill-rule: nonzero; opacity: 1;"   transform=" translate(-150, -122.34)" d="M 150 0 C 232.8 0 300 67.2 300 150 C 300 185.88956000000002 287.37461 218.84822 266.3259 244.67392 L 150 128.34802000000002 L 33.674099999999996 244.67392 C 12.625389999999996 218.84822 -7.105427357601002e-15 185.88956000000002 -7.105427357601002e-15 150 C -7.105427357601002e-15 67.2 67.19999999999999 0 150 0 z" stroke-linecap="round" />
</g>
<g transform="matrix(1.52 0 0 1.71 372.74 538.17)" id="-9sL8ZJq4Ix-FL7mcBcIe"  >
<path style="stroke: rgb(0,0,0); stroke-width: 22; stroke-dasharray: none; stroke-linecap: butt; stroke-dashoffset: 0; stroke-linejoin: miter; stroke-miterlimit: 4; fill: rgb(255,255,255); fill-opacity: 0; fill-rule: nonzero; opacity: 1;"   transform=" translate(0, 0)" d="M -35.14445 9.46519 C -35.14445 9.46519 13.29571 9.02221 35.14445 -9.46519" stroke-linecap="round" />
</g>
<g transform="matrix(-1.52 0 0 1.71 266.72 538.17)" id="yKZmIB5C7pap7a7NNRrnG"  >
<path style="stroke: rgb(0,0,0); stroke-width: 22; stroke-dasharray: none; stroke-linecap: butt; stroke-dashoffset: 0; stroke-linejoin: miter; stroke-miterlimit: 4; fill: rgb(255,255,255); fill-opacity: 0; fill-rule: nonzero; opacity: 1;"   transform=" translate(0, 0)" d="M -35.14445 9.46519 C -35.14445 9.46519 13.29571 9.02221 35.14445 -9.46519" stroke-linecap="round" />
</g>
<g transform="matrix(1.94 0 0 1.94 320.23 430.92)" id="CMEJDFxZj7GWaZdTUZ-2y"  >
<path style="stroke: rgb(0,0,0); stroke-width: 0; stroke-dasharray: none; stroke-linecap: butt; stroke-dashoffset: 0; stroke-linejoin: miter; stroke-miterlimit: 4; fill: rgb(0,0,0); fill-rule: nonzero; opacity: 1;"   transform=" translate(-30, -30)" d="M 60 32 C 44.544 32 32 44.544 32 60 L 28 60 C 28 44.544 15.456 32 0 32 L 0 28 C 15.456 28 28 15.456 28 0 L 32 0 C 32 15.456 44.544 28 60 28 z" stroke-linecap="round" />
</g>
</svg>